<?xml version="1.0" encoding="utf-8"?>
<!-- Generator: Adobe Illustrator 23.0.6, SVG Export Plug-In . SVG Version: 6.00 Build 0)  -->
<svg version="1.1" xmlns="http://www.w3.org/2000/svg" xmlns:xlink="http://www.w3.org/1999/xlink" x="0px" y="0px"
	 viewBox="0 0 135 100" enable-background="new 0 0 135 100" xml:space="preserve">
<g id="Layer_1" display="none">
	<g id="Layer_1_copy">
		<circle display="inline" fill="#2D3142" cx="57.4" cy="41" r="17.4"/>
		<circle display="inline" fill="#2D3142" cx="77.4" cy="16.5" r="17.4"/>
		<circle display="inline" fill="#2D3142" cx="117.4" cy="16.5" r="17.4"/>
		<rect display="inline" fill="#D52A28" width="15" height="100"/>
		<rect x="20.1" display="inline" fill="#FBBE4A" width="15" height="100"/>
		<rect x="40" display="inline" fill="#D52A28" width="15" height="100"/>
		<rect x="60" display="inline" fill="#D52A28" width="15" height="100"/>
		<rect x="80" display="inline" fill="#FBBE4A" width="15" height="100"/>
		<rect x="100" display="inline" fill="#D52A28" width="15" height="100"/>
		<rect x="120" display="inline" fill="#FBBE4A" width="15" height="100"/>
		<rect x="20" y="-0.1" display="inline" fill="#2D3142" width="15" height="15"/>
		<circle display="inline" fill="#2D3142" cx="67.5" cy="257" r="171.2"/>
		<rect x="-5.8" y="58.2" display="inline" fill="#2D3142" width="142" height="15"/>
		<rect x="85" y="15" display="inline" fill="#2D3142" width="5" height="43.2"/>
		<rect x="125" display="inline" fill="#2D3142" width="5" height="43.2"/>
	</g>
</g>
<g id="logo_1_">
	<g id="under">
		<path id="under1" fill="#2D3142" d="M1.7,73.2h11.6c0.9,0,1.7,0.8,1.7,1.7v17.8c0,0.7-0.5,1.4-1.2,1.6C9.1,95.9,4.5,97.7,0,99.6
			V74.9C0,74,0.8,73.2,1.7,73.2z"/>
		<path id="under2" fill="#2D3142" d="M21.8,73.2h11.6c0.9,0,1.7,0.8,1.7,1.7v12.5c0,0.8-0.6,1.5-1.4,1.7c-3.9,0.8-7.7,1.7-11.5,2.7
			c-1.1,0.3-2.1-0.5-2.1-1.6V74.9C20.1,74,20.8,73.2,21.8,73.2z"/>
		<path id="under3" fill="#2D3142" d="M41.7,73.2h11.6c0.9,0,1.7,0.8,1.7,1.7v9.7c0,0.9-0.7,1.6-1.6,1.7c-3.9,0.3-7.7,0.8-11.5,1.3
			C40.9,87.8,40,87,40,86V74.9C40,74,40.8,73.2,41.7,73.2z"/>
		<path id="under4" fill="#2D3142" d="M61.7,73.2h11.6c0.9,0,1.7,0.8,1.7,1.7v9.3c0,1-0.8,1.7-1.8,1.7c-1.9-0.1-3.8-0.1-5.7-0.1
			c-1.9,0-3.8,0-5.7,0.1c-1,0-1.8-0.7-1.8-1.7v-9.3C60,74,60.8,73.2,61.7,73.2z"/>
		<path id="under5" fill="#2D3142" d="M81.7,73.2h11.6c0.9,0,1.7,0.8,1.7,1.7V86c0,1-0.9,1.8-1.9,1.7c-3.8-0.6-7.6-1-11.5-1.3
			c-0.9-0.1-1.6-0.8-1.6-1.7V75C80,74,80.8,73.2,81.7,73.2z"/>
		<path id="under6" fill="#2D3142" d="M101.7,73.2h11.6c0.9,0,1.7,0.8,1.7,1.7v15.3c0,1.1-1.1,1.9-2.1,1.6c-3.8-1-7.6-1.9-11.5-2.7
			c-0.8-0.2-1.4-0.8-1.4-1.7V74.9C100,74,100.8,73.2,101.7,73.2z"/>
		<path id="under7" fill="#2D3142" d="M121.7,73.2h11.6c0.9,0,1.7,0.8,1.7,1.7v24.7c-4.5-1.9-9.1-3.7-13.8-5.2
			c-0.7-0.2-1.2-0.9-1.2-1.6V75C120,74,120.8,73.2,121.7,73.2z"/>
	</g>
	<g id="books">
		<path id="book2" fill="#FBBE4A" d="M35.1,16.6v39.9c0,0.9-0.8,1.7-1.7,1.7H21.8c-0.9,0-1.7-0.8-1.7-1.7V16.6
			c0-0.9,0.8-1.7,1.7-1.7h11.6C34.3,14.9,35.1,15.7,35.1,16.6z"/>
		<path id="book1" fill="#D52A28" d="M15,1.7v54.8c0,0.9-0.8,1.7-1.7,1.7H1.7c-0.9,0-1.7-0.8-1.7-1.7V1.7C0,0.8,0.8,0,1.7,0h11.6
			C14.2,0,15,0.8,15,1.7z"/>
		<path id="book3" fill="#D52A28" d="M53.3,0C54.2,0,55,0.8,55,1.7v56.7c-0.3,0-0.6-0.1-0.9-0.2C46.1,56.6,40,49.6,40,41V1.7
			C40,0.8,40.8,0,41.7,0H53.3z"/>
		<path id="book4" fill="#D52A28" d="M73.3,0C74.2,0,75,0.8,75,1.7v40.2c-0.4,8.1-6.4,14.8-14.1,16.3c-0.3,0.1-0.6,0.1-0.9,0.2V1.7
			C60,0.8,60.8,0,61.7,0H73.3z"/>
		<path id="book6" fill="#D52A28" d="M115,1.7v54.8c0,0.9-0.8,1.7-1.7,1.7h-11.6c-0.9,0-1.7-0.8-1.7-1.7V1.7c0-0.9,0.8-1.7,1.7-1.7
			h11.6C114.2,0,115,0.8,115,1.7z"/>
		<g id="book5">
			<path fill="#FBBE4A" d="M95,13.9v42.6c0,0.9-0.8,1.7-1.7,1.7H81.7c-0.9,0-1.7-0.8-1.7-1.7V1.7C80,0.8,80.8,0,81.7,0h1.9
				c0.2,0,0.5,0,0.7,0.1C89.8,2.4,94,7.5,95,13.6C95,13.7,95,13.8,95,13.9z"/>
			<path fill="#D52A28" d="M90,16.1v42.1h-5V16.1c0-0.6,0.5-1.1,1.1-1.1h2.8C89.5,15,90,15.5,90,16.1z"/>
		</g>
		<g id="book7">
			<path fill="#FBBE4A" d="M135,12.8v43.7c0,0.9-0.8,1.7-1.7,1.7h-11.6c-0.9,0-1.7-0.8-1.7-1.7V1.7c0-0.9,0.8-1.7,1.7-1.7h2.5
				c0.3,0.1,0.5,0.2,0.8,0.3c1.9,0.8,3.5,2,5,3.4c2.4,2.3,4.2,5.3,5,8.7C135,12.5,135,12.7,135,12.8z"/>
			<path fill="#D52A28" d="M130,3.7v38.4c0,0.6-0.5,1.1-1.1,1.1h-2.8c-0.6,0-1.1-0.5-1.1-1.1V0.3C126.9,1.2,128.6,2.3,130,3.7z"/>
		</g>
	</g>
</g>
</svg>
